# xmcd
#
# Track frame offsets:
#	150
#	14617
#	32772
#
# Disc length: 651 seconds
#
# Revision: 0
# Processed by: cddbd v1.5.2PL0 Copyright (c) Steve Scherf et al.
# Submitted via: audiograbber 1.83.01
#
DISCID=1d028903
DTITLE=Nylon Beat - Moka [CDM)
DYEAR=2002
DGENRE=Pop
TTITLE0=Moka
TTITLE1=Moka (Chill-Remix)
TTITLE2=Moka (Morkkis-Remix)
EXTD=TR.
EXTT0=
EXTT1=
EXTT2=
PLAYORDER=
